<svg id="图层_1" data-name="图层 1" xmlns="http://www.w3.org/2000/svg" viewBox="0 0 423.54 103.43"><defs><style>.cls-1,.cls-2{fill:#fff;}.cls-1{fill-rule:evenodd;}</style></defs><path class="cls-1" d="M209.22,468.85v-6.67h2.51a3.2,3.2,0,0,1,1.22.2,1.72,1.72,0,0,1,1,1.51,1.47,1.47,0,0,1-.24.8,1.57,1.57,0,0,1-.7.61,1.68,1.68,0,0,1,.93.61,1.59,1.59,0,0,1,.33,1,2,2,0,0,1-.2.87,1.71,1.71,0,0,1-.49.62,2.24,2.24,0,0,1-.73.33,4.63,4.63,0,0,1-1.07.11Zm.89-3.87h1.44a3.36,3.36,0,0,0,.84-.07,1,1,0,0,0,.51-.34,1,1,0,0,0,.17-.58,1.12,1.12,0,0,0-.16-.58.81.81,0,0,0-.46-.35,3.85,3.85,0,0,0-1-.09h-1.33v2Zm0,3.08h1.66a4.14,4.14,0,0,0,.6,0,1.69,1.69,0,0,0,.51-.18,1.08,1.08,0,0,0,.33-.37,1.16,1.16,0,0,0,.13-.56,1.08,1.08,0,0,0-.19-.65.92.92,0,0,0-.53-.39,3.39,3.39,0,0,0-1-.11h-1.54Z" transform="translate(-85.17 -385.67)"/><polygon class="cls-1" points="130.84 83.18 130.84 76.51 135.66 76.51 135.66 77.3 131.72 77.3 131.72 79.34 135.41 79.34 135.41 80.12 131.72 80.12 131.72 82.39 135.81 82.39 135.81 83.18 130.84 83.18"/><rect class="cls-2" x="137.7" y="76.51" width="0.88" height="6.67"/><path class="cls-1" d="M225.37,467l.8-.11a1.65,1.65,0,0,0,.29,1,.88.88,0,0,0,.7.28,1.05,1.05,0,0,0,.57-.15.75.75,0,0,0,.34-.41,2.82,2.82,0,0,0,.09-.84v-4.59H229v4.54a3.44,3.44,0,0,1-.2,1.3,1.45,1.45,0,0,1-.64.7,2.15,2.15,0,0,1-1,.24,1.77,1.77,0,0,1-1.35-.5A2.11,2.11,0,0,1,225.37,467Z" transform="translate(-85.17 -385.67)"/><rect class="cls-2" x="145.98" y="76.51" width="0.88" height="6.67"/><polygon class="cls-1" points="148.92 83.18 148.92 76.51 149.83 76.51 153.33 81.75 153.33 76.51 154.18 76.51 154.18 83.18 153.27 83.18 149.77 77.94 149.77 83.18 148.92 83.18"/><path class="cls-1" d="M244.47,466.23v-.78h2.82v2.47a5,5,0,0,1-1.34.78,4.1,4.1,0,0,1-1.42.26,3.77,3.77,0,0,1-1.78-.42,2.85,2.85,0,0,1-1.22-1.21,3.92,3.92,0,0,1-.41-1.78,4.15,4.15,0,0,1,.41-1.82,2.69,2.69,0,0,1,1.17-1.25,3.92,3.92,0,0,1,3.07-.18,2.24,2.24,0,0,1,.91.65,2.88,2.88,0,0,1,.51,1.1l-.8.21a2.49,2.49,0,0,0-.37-.8,1.49,1.49,0,0,0-.64-.46,2.24,2.24,0,0,0-.91-.18,2.56,2.56,0,0,0-1.05.19,1.94,1.94,0,0,0-.71.48,2.31,2.31,0,0,0-.42.66,3.48,3.48,0,0,0-.26,1.34,3.29,3.29,0,0,0,.31,1.49,1.92,1.92,0,0,0,.89.89,2.74,2.74,0,0,0,1.25.3,3,3,0,0,0,1.12-.23,2.75,2.75,0,0,0,.83-.47v-1.24Z" transform="translate(-85.17 -385.67)"/><path class="cls-1" d="M255.55,462.18h.88V466a4.63,4.63,0,0,1-.22,1.6,2,2,0,0,1-.82,1,2.91,2.91,0,0,1-1.56.37,3.22,3.22,0,0,1-1.53-.32,1.81,1.81,0,0,1-.85-.94,4.2,4.2,0,0,1-.26-1.67v-3.85h.88V466a4,4,0,0,0,.16,1.28,1.27,1.27,0,0,0,.56.63,1.89,1.89,0,0,0,1,.23,1.83,1.83,0,0,0,1.39-.45,2.54,2.54,0,0,0,.41-1.69Z" transform="translate(-85.17 -385.67)"/><polygon class="cls-1" points="173.24 83.18 173.24 76.51 174.15 76.51 177.65 81.75 177.65 76.51 178.49 76.51 178.49 83.18 177.59 83.18 174.09 77.94 174.09 83.18 173.24 83.18"/><rect class="cls-2" x="180.64" y="76.51" width="0.88" height="6.67"/><path class="cls-1" d="M270.67,468.85l-2.58-6.67h1l1.73,4.84c.14.39.25.76.35,1.1.1-.37.22-.73.36-1.1l1.8-4.84h.9l-2.61,6.67Z" transform="translate(-85.17 -385.67)"/><polygon class="cls-1" points="190.35 83.18 190.35 76.51 195.17 76.51 195.17 77.3 191.23 77.3 191.23 79.34 194.91 79.34 194.91 80.12 191.23 80.12 191.23 82.39 195.32 82.39 195.32 83.18 190.35 83.18"/><path class="cls-1" d="M282.24,468.85v-6.67h3a3.91,3.91,0,0,1,1.35.18,1.46,1.46,0,0,1,.74.63,1.88,1.88,0,0,1,.28,1,1.68,1.68,0,0,1-.46,1.2,2.38,2.38,0,0,1-1.42.62,2,2,0,0,1,.53.33,4.41,4.41,0,0,1,.74.88l1.16,1.82H287l-.89-1.39c-.25-.4-.47-.71-.63-.92a2,2,0,0,0-.45-.44,1.18,1.18,0,0,0-.4-.18,2.85,2.85,0,0,0-.49,0h-1v3Zm.88-3.73H285A2.9,2.9,0,0,0,286,465a1,1,0,0,0,.7-1,1,1,0,0,0-.34-.78,1.63,1.63,0,0,0-1.09-.3h-2.11Z" transform="translate(-85.17 -385.67)"/><path class="cls-1" d="M289.17,466.71l.83-.08a1.73,1.73,0,0,0,.28.82,1.44,1.44,0,0,0,.67.52,2.54,2.54,0,0,0,1,.2,2.44,2.44,0,0,0,.89-.15,1.29,1.29,0,0,0,.58-.41,1,1,0,0,0,.19-.57.84.84,0,0,0-.19-.55,1.25,1.25,0,0,0-.6-.39,12,12,0,0,0-1.18-.33,6.55,6.55,0,0,1-1.29-.41,1.77,1.77,0,0,1-.71-.63,1.47,1.47,0,0,1-.24-.83,1.7,1.7,0,0,1,.29-.94,1.84,1.84,0,0,1,.84-.67,3.19,3.19,0,0,1,1.22-.22,3.33,3.33,0,0,1,1.31.24,1.85,1.85,0,0,1,.87.7,2.1,2.1,0,0,1,.33,1.05l-.85.06a1.37,1.37,0,0,0-.46-.95,1.76,1.76,0,0,0-1.16-.32,1.85,1.85,0,0,0-1.17.29.89.89,0,0,0-.37.71.77.77,0,0,0,.26.59,3.64,3.64,0,0,0,1.33.47,8.68,8.68,0,0,1,1.48.43,2,2,0,0,1,.86.68,1.69,1.69,0,0,1,.28,1,1.86,1.86,0,0,1-.31,1,2,2,0,0,1-.87.73A3.13,3.13,0,0,1,292,469a3.9,3.9,0,0,1-1.51-.26,2.1,2.1,0,0,1-1-.8A2.15,2.15,0,0,1,289.17,466.71Z" transform="translate(-85.17 -385.67)"/><rect class="cls-2" x="211.18" y="76.51" width="0.88" height="6.67"/><polygon class="cls-1" points="215.83 83.18 215.83 77.3 213.63 77.3 213.63 76.51 218.92 76.51 218.92 77.3 216.71 77.3 216.71 83.18 215.83 83.18"/><path class="cls-1" d="M307.39,468.85V466l-2.57-3.84h1.07l1.32,2c.24.38.46.75.67,1.13.2-.35.45-.74.73-1.18l1.29-2h1L308.27,466v2.83Z" transform="translate(-85.17 -385.67)"/><path class="cls-1" d="M313.87,465.6a3.64,3.64,0,0,1,.89-2.6,3.07,3.07,0,0,1,2.31-.94,3.22,3.22,0,0,1,1.66.44,3,3,0,0,1,1.13,1.23,4,4,0,0,1,.39,1.79,4,4,0,0,1-.41,1.82,2.77,2.77,0,0,1-1.16,1.21,3.36,3.36,0,0,1-1.62.41,3.15,3.15,0,0,1-1.68-.45,3,3,0,0,1-1.13-1.25,3.78,3.78,0,0,1-.38-1.66Zm.91,0a2.67,2.67,0,0,0,.65,1.9,2.25,2.25,0,0,0,3.26,0,2.84,2.84,0,0,0,.65-2,3.3,3.3,0,0,0-.28-1.42,2.06,2.06,0,0,0-.8-.94,2.15,2.15,0,0,0-1.19-.34,2.24,2.24,0,0,0-1.61.65A2.84,2.84,0,0,0,314.78,465.61Z" transform="translate(-85.17 -385.67)"/><polygon class="cls-1" points="236.78 83.18 236.78 76.51 241.28 76.51 241.28 77.3 237.66 77.3 237.66 79.36 240.79 79.36 240.79 80.15 237.66 80.15 237.66 83.18 236.78 83.18"/><path class="cls-1" d="M330.18,468.85v-6.67h2.51a5.31,5.31,0,0,1,1,.07,1.87,1.87,0,0,1,.82.31,1.6,1.6,0,0,1,.53.64,2,2,0,0,1,.21.91,2,2,0,0,1-.54,1.44,2.64,2.64,0,0,1-2,.59h-1.71v2.71Zm.88-3.5h1.72A1.8,1.8,0,0,0,334,465a1.12,1.12,0,0,0,.36-.89,1.22,1.22,0,0,0-.21-.72,1,1,0,0,0-.56-.39,3.69,3.69,0,0,0-.82-.06h-1.71Z" transform="translate(-85.17 -385.67)"/><path class="cls-1" d="M336.64,465.6a3.64,3.64,0,0,1,.89-2.6,3,3,0,0,1,2.3-.94,3.25,3.25,0,0,1,1.67.44,3,3,0,0,1,1.13,1.23,4.16,4.16,0,0,1,.38,1.79,4,4,0,0,1-.4,1.82,2.83,2.83,0,0,1-1.16,1.21,3.39,3.39,0,0,1-1.62.41,3.21,3.21,0,0,1-1.69-.45,3,3,0,0,1-1.12-1.25,3.78,3.78,0,0,1-.38-1.66Zm.91,0a2.63,2.63,0,0,0,.65,1.9,2.1,2.1,0,0,0,1.62.7,2.15,2.15,0,0,0,1.64-.7,2.84,2.84,0,0,0,.65-2,3.46,3.46,0,0,0-.28-1.42,2.06,2.06,0,0,0-.8-.94,2.15,2.15,0,0,0-1.19-.34,2.27,2.27,0,0,0-1.62.65A2.84,2.84,0,0,0,337.55,465.61Z" transform="translate(-85.17 -385.67)"/><path class="cls-1" d="M344.37,466.71l.83-.08a1.73,1.73,0,0,0,.28.82,1.39,1.39,0,0,0,.67.52,2.54,2.54,0,0,0,1,.2,2.44,2.44,0,0,0,.89-.15,1.29,1.29,0,0,0,.58-.41,1,1,0,0,0,.19-.57.84.84,0,0,0-.19-.55,1.25,1.25,0,0,0-.6-.39,12,12,0,0,0-1.18-.33,6.11,6.11,0,0,1-1.29-.41,1.77,1.77,0,0,1-.71-.63,1.47,1.47,0,0,1-.24-.83,1.7,1.7,0,0,1,.29-.94,1.84,1.84,0,0,1,.84-.67,3.16,3.16,0,0,1,1.22-.22,3.36,3.36,0,0,1,1.31.24,1.9,1.9,0,0,1,.87.7,2.1,2.1,0,0,1,.33,1.05l-.85.06a1.37,1.37,0,0,0-.46-.95,1.76,1.76,0,0,0-1.16-.32,1.83,1.83,0,0,0-1.17.29.89.89,0,0,0-.37.71.77.77,0,0,0,.26.59,3.64,3.64,0,0,0,1.33.47,8.68,8.68,0,0,1,1.48.43,2,2,0,0,1,.86.68,1.68,1.68,0,0,1,.27,1,1.85,1.85,0,0,1-.3,1,2,2,0,0,1-.87.73,3.16,3.16,0,0,1-1.29.26,4,4,0,0,1-1.52-.26,2.17,2.17,0,0,1-1.32-2Z" transform="translate(-85.17 -385.67)"/><polygon class="cls-1" points="267.93 83.18 267.93 77.3 265.73 77.3 265.73 76.51 271.01 76.51 271.01 77.3 268.81 77.3 268.81 83.18 267.93 83.18"/><path class="cls-1" d="M357.31,466.71l.83-.08a1.85,1.85,0,0,0,.27.82,1.5,1.5,0,0,0,.67.52,2.59,2.59,0,0,0,1,.2A2.48,2.48,0,0,0,361,468a1.26,1.26,0,0,0,.57-.41,1,1,0,0,0,.19-.57.89.89,0,0,0-.18-.55,1.25,1.25,0,0,0-.6-.39c-.18-.07-.58-.18-1.19-.33a6.55,6.55,0,0,1-1.29-.41,1.91,1.91,0,0,1-.71-.63,1.54,1.54,0,0,1-.23-.83,1.63,1.63,0,0,1,.29-.94,1.86,1.86,0,0,1,.83-.67,3.24,3.24,0,0,1,1.23-.22,3.31,3.31,0,0,1,1.3.24,1.85,1.85,0,0,1,.87.7,1.92,1.92,0,0,1,.33,1.05l-.84.06a1.34,1.34,0,0,0-.47-.95,1.76,1.76,0,0,0-1.16-.32,1.87,1.87,0,0,0-1.17.29.88.88,0,0,0-.36.71.77.77,0,0,0,.26.59,3.56,3.56,0,0,0,1.33.47,8.49,8.49,0,0,1,1.47.43,2,2,0,0,1,.86.68,1.61,1.61,0,0,1,.28,1,1.85,1.85,0,0,1-.3,1,2.13,2.13,0,0,1-.88.73,3.11,3.11,0,0,1-1.28.26,4,4,0,0,1-1.52-.26,2.1,2.1,0,0,1-1-.8A2.22,2.22,0,0,1,357.31,466.71Z" transform="translate(-85.17 -385.67)"/><path class="cls-1" d="M367.74,468.85l2.57-6.67h.95l2.72,6.67h-1l-.78-2h-2.79l-.73,2Zm1.93-2.74h2.26l-.7-1.85c-.21-.56-.37-1-.47-1.38a8.76,8.76,0,0,1-.36,1.28Z" transform="translate(-85.17 -385.67)"/><polygon class="cls-1" points="290.03 83.18 290.03 76.51 290.93 76.51 294.43 81.75 294.43 76.51 295.28 76.51 295.28 83.18 294.37 83.18 290.87 77.94 290.87 83.18 290.03 83.18"/><path class="cls-1" d="M382.45,468.85v-6.67h2.3a5.1,5.1,0,0,1,1.18.1,2.19,2.19,0,0,1,1,.47,2.82,2.82,0,0,1,.79,1.14,5,5,0,0,1,.08,2.93,3.44,3.44,0,0,1-.45,1,2.66,2.66,0,0,1-.61.6,2.27,2.27,0,0,1-.79.33,4.38,4.38,0,0,1-1.07.12Zm.88-.79h1.42a3.57,3.57,0,0,0,1-.12,1.47,1.47,0,0,0,.6-.35,2.15,2.15,0,0,0,.49-.84,4.34,4.34,0,0,0,.17-1.29,3.07,3.07,0,0,0-.34-1.6,1.66,1.66,0,0,0-.84-.75,3.15,3.15,0,0,0-1.14-.14h-1.4Z" transform="translate(-85.17 -385.67)"/><polygon class="cls-1" points="308.12 83.18 308.12 77.3 305.93 77.3 305.93 76.51 311.21 76.51 311.21 77.3 309 77.3 309 83.18 308.12 83.18"/><polygon class="cls-1" points="312.65 83.18 312.65 76.51 317.47 76.51 317.47 77.3 313.53 77.3 313.53 79.34 317.22 79.34 317.22 80.12 313.53 80.12 313.53 82.39 317.62 82.39 317.62 83.18 312.65 83.18"/><polygon class="cls-1" points="319.32 83.18 319.32 76.51 320.21 76.51 320.21 82.39 323.49 82.39 323.49 83.18 319.32 83.18"/><polygon class="cls-1" points="325.08 83.18 325.08 76.51 329.89 76.51 329.89 77.3 325.96 77.3 325.96 79.34 329.64 79.34 329.64 80.12 325.96 80.12 325.96 82.39 330.05 82.39 330.05 83.18 325.08 83.18"/><path class="cls-1" d="M421.71,466.51l.89.22a3,3,0,0,1-1,1.66,2.76,2.76,0,0,1-1.77.57,3.11,3.11,0,0,1-1.75-.44,2.73,2.73,0,0,1-1-1.27,4.61,4.61,0,0,1-.35-1.79,3.83,3.83,0,0,1,.4-1.81,2.69,2.69,0,0,1,1.13-1.18,3.3,3.3,0,0,1,1.62-.4,2.71,2.71,0,0,1,1.68.51,2.6,2.6,0,0,1,1,1.43l-.87.2a2.11,2.11,0,0,0-.67-1.06,1.79,1.79,0,0,0-1.11-.33,2.18,2.18,0,0,0-1.28.37,2,2,0,0,0-.73,1,4.26,4.26,0,0,0,0,2.76,1.79,1.79,0,0,0,.77.95,2.17,2.17,0,0,0,1.13.32,1.94,1.94,0,0,0,1.26-.43A2.21,2.21,0,0,0,421.71,466.51Z" transform="translate(-85.17 -385.67)"/><path class="cls-1" d="M423.93,465.6a3.64,3.64,0,0,1,.89-2.6,3.06,3.06,0,0,1,2.3-.94,3.25,3.25,0,0,1,1.67.44,3,3,0,0,1,1.13,1.23,4,4,0,0,1,.39,1.79,4,4,0,0,1-.41,1.82,2.83,2.83,0,0,1-1.16,1.21,3.36,3.36,0,0,1-1.62.41,3.15,3.15,0,0,1-1.68-.45,3,3,0,0,1-1.13-1.25,3.78,3.78,0,0,1-.38-1.66Zm.91,0a2.67,2.67,0,0,0,.65,1.9,2.1,2.1,0,0,0,1.62.7,2.13,2.13,0,0,0,1.64-.7,2.84,2.84,0,0,0,.65-2,3.46,3.46,0,0,0-.28-1.42,2.06,2.06,0,0,0-.8-.94,2.15,2.15,0,0,0-1.19-.34,2.24,2.24,0,0,0-1.61.65A2.84,2.84,0,0,0,424.84,465.61Z" transform="translate(-85.17 -385.67)"/><path class="cls-1" d="M431.93,468.85v-6.67h1.33l1.58,4.72.32,1c.07-.24.19-.6.35-1.07l1.6-4.64h1.19v6.67h-.86v-5.58l-1.93,5.58h-.8l-1.93-5.68v5.68Z" transform="translate(-85.17 -385.67)"/><path class="cls-1" d="M440.21,468.85v-6.67h1.33l1.57,4.72c.15.44.26.77.32,1l.36-1.07,1.59-4.64h1.19v6.67h-.85v-5.58l-1.94,5.58H443l-1.93-5.68v5.68Z" transform="translate(-85.17 -385.67)"/><path class="cls-1" d="M452.89,462.18h.88V466a4.6,4.6,0,0,1-.23,1.6,2,2,0,0,1-.82,1,2.88,2.88,0,0,1-1.56.37,3.28,3.28,0,0,1-1.53-.32,1.85,1.85,0,0,1-.85-.94,4.41,4.41,0,0,1-.25-1.67v-3.85h.88V466a3.72,3.72,0,0,0,.16,1.28,1.25,1.25,0,0,0,.55.63,1.92,1.92,0,0,0,1,.23,1.81,1.81,0,0,0,1.39-.45,2.48,2.48,0,0,0,.42-1.69Z" transform="translate(-85.17 -385.67)"/><polygon class="cls-1" points="370.57 83.18 370.57 76.51 371.48 76.51 374.98 81.75 374.98 76.51 375.83 76.51 375.83 83.18 374.92 83.18 371.42 77.94 371.42 83.18 370.57 83.18"/><rect class="cls-2" x="377.98" y="76.51" width="0.88" height="6.67"/><path class="cls-1" d="M470.86,466.51l.88.22a2.93,2.93,0,0,1-1,1.66A2.73,2.73,0,0,1,469,469a3.09,3.09,0,0,1-1.75-.44,2.68,2.68,0,0,1-1-1.27,4.61,4.61,0,0,1-.35-1.79,3.83,3.83,0,0,1,.4-1.81,2.69,2.69,0,0,1,1.13-1.18,3.29,3.29,0,0,1,1.61-.4,2.76,2.76,0,0,1,1.69.51,2.65,2.65,0,0,1,.95,1.43l-.87.2a2.18,2.18,0,0,0-.67-1.06,1.83,1.83,0,0,0-1.11-.33,2.21,2.21,0,0,0-1.29.37,2,2,0,0,0-.72,1,4,4,0,0,0-.21,1.28,4.14,4.14,0,0,0,.24,1.48,1.86,1.86,0,0,0,.78.95,2.12,2.12,0,0,0,1.13.32,1.91,1.91,0,0,0,1.25-.43A2.17,2.17,0,0,0,470.86,466.51Z" transform="translate(-85.17 -385.67)"/><path class="cls-1" d="M472.61,468.85l2.56-6.67h.95l2.73,6.67h-1l-.78-2h-2.79l-.73,2Zm1.93-2.74h2.26l-.7-1.85c-.21-.56-.37-1-.47-1.38a10.21,10.21,0,0,1-.36,1.28Z" transform="translate(-85.17 -385.67)"/><polygon class="cls-1" points="395.91 83.18 395.91 77.3 393.71 77.3 393.71 76.51 399 76.51 399 77.3 396.79 77.3 396.79 83.18 395.91 83.18"/><rect class="cls-2" x="400.57" y="76.51" width="0.88" height="6.67"/><path class="cls-1" d="M488.43,465.6a3.6,3.6,0,0,1,.89-2.6,3,3,0,0,1,2.3-.94,3.22,3.22,0,0,1,1.66.44,2.92,2.92,0,0,1,1.13,1.23,4,4,0,0,1,.39,1.79,3.84,3.84,0,0,1-.41,1.82,2.77,2.77,0,0,1-1.16,1.21,3.35,3.35,0,0,1-1.61.41,3.21,3.21,0,0,1-1.69-.45,3,3,0,0,1-1.12-1.25,3.64,3.64,0,0,1-.38-1.66Zm.91,0a2.67,2.67,0,0,0,.64,1.9,2.13,2.13,0,0,0,1.63.7,2.16,2.16,0,0,0,1.64-.7,2.83,2.83,0,0,0,.64-2,3.46,3.46,0,0,0-.27-1.42,2.08,2.08,0,0,0-.81-.94,2.12,2.12,0,0,0-1.19-.34,2.26,2.26,0,0,0-1.61.65A2.84,2.84,0,0,0,489.34,465.61Z" transform="translate(-85.17 -385.67)"/><polygon class="cls-1" points="411.28 83.18 411.28 76.51 412.18 76.51 415.68 81.75 415.68 76.51 416.53 76.51 416.53 83.18 415.63 83.18 412.12 77.94 412.12 83.18 411.28 83.18"/><path class="cls-1" d="M503.4,466.71l.83-.08a1.73,1.73,0,0,0,.28.82,1.39,1.39,0,0,0,.67.52,2.54,2.54,0,0,0,1,.2,2.44,2.44,0,0,0,.89-.15,1.29,1.29,0,0,0,.58-.41,1,1,0,0,0,.19-.57.84.84,0,0,0-.19-.55,1.25,1.25,0,0,0-.6-.39,12,12,0,0,0-1.18-.33,6.55,6.55,0,0,1-1.29-.41,1.77,1.77,0,0,1-.71-.63,1.46,1.46,0,0,1-.23-.83,1.69,1.69,0,0,1,.28-.94,1.84,1.84,0,0,1,.84-.67,3.16,3.16,0,0,1,1.22-.22,3.33,3.33,0,0,1,1.31.24,1.85,1.85,0,0,1,.87.7,2.1,2.1,0,0,1,.33,1.05l-.85.06a1.37,1.37,0,0,0-.46-.95,1.76,1.76,0,0,0-1.16-.32,1.85,1.85,0,0,0-1.17.29.89.89,0,0,0-.37.71.77.77,0,0,0,.26.59,3.64,3.64,0,0,0,1.33.47,8.68,8.68,0,0,1,1.48.43,2,2,0,0,1,.86.68,1.69,1.69,0,0,1,.28,1,1.86,1.86,0,0,1-.31,1,2,2,0,0,1-.87.73,3.13,3.13,0,0,1-1.29.26,3.9,3.9,0,0,1-1.51-.26,2.18,2.18,0,0,1-1-.8A2.22,2.22,0,0,1,503.4,466.71Z" transform="translate(-85.17 -385.67)"/><path class="cls-1" d="M223.51,423.54s3.5-12.37.33-12.6-5.19,2.94-4.29,8.14S220,422,220,422s-8.35.91-8.35,3.16,2.71,2.94,6.55,1.59,0,5.64,0,7-6.33,6.32-8.36,6.55-.45,5.64,6.1,1.58,17.84-10.62,17.84-10.62,0,6.1,3.84,8.13-5.19,2.71-3.61,4.3,8.35.45,12-3.84-4.52-4.3-7-5.88.45-10.16,9-9.93.68-5.2-6.77-3.84c0,0,1.35-14.46-3.39-14.69s-7-1.8-4.07,4.07.68,15.13.68,15.13-9.26,6.78-11.29,7.46S223.51,423.54,223.51,423.54Z" transform="translate(-85.17 -385.67)"/><path class="cls-1" d="M278.67,408.87c-.49.25,2.22-5.42.5-6.65s12.56-1.48,10.34,2.71-10.34,3.7-10.84,3.94ZM260,422.42c-2,1,1.48,5.67,1.48,5.67s27.84-12.32,36.95-14.29,5.42-5.67,5.42-5.67c-12.07-2-41.88,13.31-43.85,14.29Zm21.21,12.3s-8.14-.91-4.7-6.69c2.79-4.7,10.11-10.35,14.22-7.95,2.75,1.62,2.36,2.93,1.05,5-1.14,1.81-2.87,4.31-3.88,4.77l-.91,6.14s11.57-1.08,9.58,6.33c0,0-4.88,2.71-7.23-1.09,0,0-2.35-3.07-2.71-2.17s1.27,11.75-5.6,6.33c0,0-4.7-5.24-.54-3.62l.72-7Zm4.11-11.4s3.39-2.38,2,1.18-3.38,3.05-3.38,3.05c-4.24-.34,1.35-4.23,1.35-4.23Zm-7.46,16.43c.17-.34-3.05,1.87-4.91,1.87s-6.61-.34-4.41,2.88,6.61,4.4,8,2S277.64,440.09,277.81,439.75Z" transform="translate(-85.17 -385.67)"/><path class="cls-1" d="M319.35,408.8,328,398.75c.95-1.11,9.25.48,5.26,3.83s-5.42,3.35-5.42,3.35l.53,1.5s10.31-3.57,7.12,2.33l-6.38,3.83s-2.39,2.87,2.08,1.43,9.57-1,5.42,4-4.15,3.67-4.15,3.67-1.27,1.91,4,1.91-.48,4.31-5.58,4.63l-.8,2.71s1,0,2.24.13c3.38.26,4.48,1,.76,3.32s-11.09,2.28-11.29,1.49c-.26-1-1-1.27,2.87-2.39s.95-2.39-.64-2.07a8.8,8.8,0,0,0-2.63,1.26c-1.63,1-1.42,1.74-2.94.59-.77-.59-1.47-1.41-.17-1.85a21.17,21.17,0,0,0,4.62-2.56s-1.11-4.62-3.19-3.19-9.89,2.08-5.74-1.43a95.06,95.06,0,0,0,7.66-7.34s-3.35-2.55-.48-3.83,3.35-2.07,3.35-2.07l.16-4-5.27.8Zm5.16,10.37c2.1-.3,1.36-1.22,1.09-2.43-.19-.86-4,2.85-1.09,2.43Zm17.7-6.9c-2.38,1.86-2.37,1.87-2.79,5.23-.14,1.12-.27,2.58-.4,4.51-.42,6.7-.49,13.51-.35,20.23.3,13.48,1.87,16.1,3.58,15.79,2-.36,1.81-22,1.81-22,15.72-7.41,5.78-16.27,5.78-16.27s9-4.88,4.52-9.94c-3.25-3.63-9.11.1-12.15,2.5Zm6.31,4.32s-.83,2-2.2,2.41,6.08,6.17,3.25,9.34a14.48,14.48,0,0,1-6.79,4.06l0-13.55C342.83,413.34,350.47,411.46,348.52,416.59Z" transform="translate(-85.17 -385.67)"/><path class="cls-1" d="M380.93,402.72s.9-5.6,6.33-.72-4,5.06-4,5.06L372.8,415s-2.35,4.7,7.59-.54,6.68-6.32,19-4.52c0,0,9.57,5.43-3.08,10.12,0,0-4.7.55,1.09-3.61s-5.24-5.6-7.05-4.16c-1.58,1.27-4,1.84.15,3.66,2.28,1,3.3,1.12,2.35,4.39-.43,1.48-1.56,3.48-4.13,6,0,0-4.15,2,2.71,2.45,2.18.14,2.7-.07,3.2,2.63.42,2.24-.53,5.58-7.72,8.48,0,0-3.61,7.22,9,5.55.94-.12,3.69-.53,2.51,1.56-1.52,2.68-14.8,1.65-14.8-4.76l-7.5,0c-7.92,0-2.79-7.23,1-12.27-10.62.88,2.44-12.33,3.78-11.24,2.52,2-.08,2.72-1.55,3.91-2.21,1.78-4.44,4.3-.6,5,5.27.93,3.91.66,4.13-2.78l.28-4.17c.19-2.91,1.74-4.8-1.74-4.38a11.36,11.36,0,0,0-8.63,5.54c-3.8,6.33-1.84,4.55-2.35,5.06s-3.43,2.48-3.08-5.78c.12-2.68,6-10.22,9.93-13.55,3.64-3.08,3.36.74,3.63-4.89Zm.75,31.48c.62-2.86-4.09-1.05-4.09,2.39s3.43,2.53,5.53,2c5.71-1.52-2.35-.21-1.44-4.36Zm5.3,1.87c1.62.15,8.58-1.07,4-4.41C387,428.72,386.68,436,387,436.07Z" transform="translate(-85.17 -385.67)"/><path class="cls-1" d="M421.18,417.05l7.12-1.53s.75-10-.26-11.18,7.85-.59,7.82,3.12-1.12,3.15-2.14,3.31,0,3.39,0,3.39,6.44-3.22,6.44.51-5.76,1.87-8.3,4.07c-1.91,1.65-2.3,3-.68,4,1.89,1.15,2.33-.45,4.82,2.25,3.48,3.77,10.16,11.53,17,11.12,0,0-5.87,6.95-14.91-1.58-2.12-2-2.51-3.76-3.77-5.14l-5.21-5.71s-11,14.24-15.26,14.58,9.49-8.31,11.19-15.42c0,0,1.86-2.55-1-2.38C420.33,421.17,419.82,417.22,421.18,417.05Z" transform="translate(-85.17 -385.67)"/><path class="cls-1" d="M478.47,412.83s-1.36,7.83-5.27,4.36c0,0-2.26-1.5-3,2.11s-6.33,2.26-5.88-4.06,2.56-13.1,6.48-9.49c0,0,1.51,5.42,2.56.75s3.91-6.47,4.22-1.35,3.76,5.87,3.91.15-1.05-7.83,1-8.43,2,.75,2.11,2.25,4.52-1.65,4.67,1.06-2.41,3.16-3.61,3.46c0,0-1.27,1.66-.37,1.92s5.68-1.94,3.49,1.29-3,1.29-3.88,2.19,3.62,1.29,3.62,4a6.4,6.4,0,0,1-1.29,4.13s7.87-.77,8.9,1.29.78,7.1-6.58,7-1.94-1.68-1-2.19,1.16-2.58-3.87-1.29-11.36,5-13.81,5.55-5.43-2.2-3.49-3.36,12-3.48,13.68-4.26,5.42-4.77,0-7.22a8.21,8.21,0,0,0-2.6.17Zm-13.66,10.41c-.65-.39-7.87,4.9-5.42,11,.76,1.89,1.75,1.16,2.7,1.08,2.1-.17,4.07-2.63,3.36-5.47-1-4.13,0-6.19-.64-6.58ZM477.72,434a62.68,62.68,0,0,1-10.85,4.39c-5.8,1.68,3.1,5.68,4.91,3.74s6.45-4,6.58-2.58,1.55,6.2-1.42,5.29-3-.64-3.87,1.68,2.58,4.39,7,2.84S484.3,438,484.3,438c2.58.13,4.26,0,6.06-3.35s-7.48-.91-7.48-.91l-.13-2.32c3-1.55,2.58-3.36,2.58-3.36.9-5-2.84-2.71-6.84-1.93s-9,4-4,3.87S477.72,434,477.72,434Z" transform="translate(-85.17 -385.67)"/><path class="cls-1" d="M96.51,437.94a4.39,4.39,0,0,1,.12,1.07h56.65s-5.95-12.72-6.69-14.21c-.28-.55-.21-1.05.71-.42s2.84,1.94,5.74,8.15l3.1-1.37c.57-.24.57-.48.09-1.32-1-1.76-1.82-3.36-2.95-5.12a19.35,19.35,0,0,0-3.47-3.63c-.31-.27-.62-.44,1.05-1.64,0,0,.68.59,1.78,1.6a17.41,17.41,0,0,1,2.49,2.68,44.36,44.36,0,0,1,3.65,6.19s3.49-1.59,4.14-2a2.09,2.09,0,0,0-.16-1.15,33,33,0,0,0-2-3.85c-1.34-2.29-2.09-3.35-6.41-7.3-.68-.63-.17-1,.25-1.5s.87-1.05,1.79-.2a22,22,0,0,1,3.78,3.79c2,2.52,4.56,7.43,6.75,13.21l6-1.32a36.73,36.73,0,0,0-8.4-16.71,36.23,36.23,0,0,0-28.06-12.32,35.22,35.22,0,0,0-23.09,8.4c-.22.32-.39.56.35.74a25.33,25.33,0,0,1,12,6.85,12.16,12.16,0,0,1,2.52,3.27,21.81,21.81,0,0,1,2.6,6.79,7.27,7.27,0,0,1-3.85,8,12.58,12.58,0,0,1-9.72,1.08c-2.94-.61-5.67-2.11-8.4-2s-4.19.42-8,3.25a4.56,4.56,0,0,1-4.26,1Zm15.83,26.67,4.56-4.69a30.57,30.57,0,0,0,19.92,7.42A24.42,24.42,0,0,0,149,464.41s-1.64-3.59-1.78-4c0,0,2-1,2.3-1.19s.62-.15.9.48,1.18,2.92,1.86,3.44a42.65,42.65,0,0,0,5.47-4.3,29.33,29.33,0,0,0,8.79-15.43,31.78,31.78,0,0,0,.74-8.95l6.38-.49a54.78,54.78,0,0,1-1.74,13.65,34.52,34.52,0,0,1-2.29,5.36,39.92,39.92,0,0,1-3.18,5.52,33.46,33.46,0,0,1-16.2,12.7c-1.08.4-16.75,6.37-31.67-2.17a32.78,32.78,0,0,1-6.24-4.46Zm32.18-9.56,1.27,2.68,2.78-1.32-1.24-2.65-2.81,1.29Zm-2.13-4.23,1.27,2.69,2.81-1.28-1.29-2.7-2.79,1.29Zm-2.13-4.34,1.22,2.64,2.77-1.31-1.25-2.6-2.74,1.27Zm-30.49,21.78L104,474.5l-1-.92a1.33,1.33,0,0,1-.32-.46,1.41,1.41,0,0,1,0-.51,2.33,2.33,0,0,1,.24-.66,3.55,3.55,0,0,1,.52-.76,4.65,4.65,0,0,1,.6-.59,1.65,1.65,0,0,1,.72-.4l.33-.07a3.85,3.85,0,0,1,.08-.58,2.27,2.27,0,0,1,.33-.71,6,6,0,0,1,.63-.82,4.71,4.71,0,0,1,.79-.68,2.45,2.45,0,0,1,.64-.35,1.5,1.5,0,0,1,.51-.07.82.82,0,0,1,.4.12,1.74,1.74,0,0,1,.38.29l1,.93Zm-3.06,2.43,1.86-2-.48-.46a3.44,3.44,0,0,0-.36-.31.55.55,0,0,0-.29-.06,1,1,0,0,0-.46.17,2.16,2.16,0,0,0-.48.39,4.54,4.54,0,0,0-.39.48,2,2,0,0,0-.26.57.5.5,0,0,0,0,.36,2.23,2.23,0,0,0,.23.27l.61.58Zm-.76.83-.55-.52a1.13,1.13,0,0,0-.28-.2.54.54,0,0,0-.33,0,1.31,1.31,0,0,0-.42.24,3.69,3.69,0,0,0-.45.44,2.82,2.82,0,0,0-.28.38,1,1,0,0,0-.15.35.54.54,0,0,0,0,.29,1,1,0,0,0,.2.29l.55.52,1.69-1.8Zm-4.37-4.41,1.13,1.28-1.79,1.6-1.25-1.41-.82.74,1.64,1.87,6.42-5.72-1.65-1.88-.85.76,1.25,1.42-2.1,1.87-1.13-1.28-.85.75Zm2.23-5.39L97,466.89l.35.46,6.83-5.16-.35-.47Zm-4.25-1.52-5,3.21-.31-.51,5.17-3.29q.28-.18.63-.36a2.81,2.81,0,0,1,.7-.29,2.15,2.15,0,0,1,.62-.1,1.33,1.33,0,0,1,.51.13.76.76,0,0,1,.37.36.82.82,0,0,1,.07.65,2.35,2.35,0,0,1-.35.66,2.86,2.86,0,0,1-.66.63l-.49.37-.32-.49.38-.28a1.63,1.63,0,0,0,.3-.28.89.89,0,0,0,.18-.35.46.46,0,0,0,0-.37.37.37,0,0,0-.22-.18.89.89,0,0,0-.37,0,1.73,1.73,0,0,0-.49.16,4.72,4.72,0,0,0-.64.35Zm.68-4.17-7.56,4,.27.53,7.57-4-.28-.54Zm-7,.51,6-2.52.23.53-7.92,3.34-.21-.53,5-4.27-5.78,2.45-.23-.54,7.91-3.34.22.5-5.19,4.38Zm-2.21-7.3-.37.16a4.44,4.44,0,0,0-.6.32,3.56,3.56,0,0,0-.56.42,1.73,1.73,0,0,0-.37.54,1,1,0,0,0,0,.68,1,1,0,0,0,.38.56,1.82,1.82,0,0,0,.63.29,5.81,5.81,0,0,0,.89.11,5.62,5.62,0,0,0,1.29-.1q.73-.14,1.44-.33c.41-.12.79-.24,1.12-.37a7.22,7.22,0,0,0,1-.43,4.05,4.05,0,0,0,.86-.58,2.13,2.13,0,0,0,.54-.73,1.37,1.37,0,0,0,.12-.72,3.92,3.92,0,0,0-.15-.66l-.27-.85-4.23,1.26.4,1.26,1.16-.35-.22-.69,2-.59.17.54a2.23,2.23,0,0,1,.09.32.89.89,0,0,1,0,.39,1.14,1.14,0,0,1-.31.51,2.67,2.67,0,0,1-.75.53,7.48,7.48,0,0,1-1,.42l-.77.23a9,9,0,0,1-.94.22,5.64,5.64,0,0,1-.93.08,3.62,3.62,0,0,1-.79-.07.86.86,0,0,1-.45-.22.78.78,0,0,1-.2-.32.66.66,0,0,1,.11-.57,1.2,1.2,0,0,1,.45-.39l.52-.28-.18-.59Zm-3.84-8.37-.06-.58,5.67-.53q.3,0,.72,0a8.34,8.34,0,0,1,.85.07,2.56,2.56,0,0,1,.77.22,1.56,1.56,0,0,1,.56.46,1,1,0,0,1,.25.6.9.9,0,0,1-.15.63,1.9,1.9,0,0,1-.5.52,2.75,2.75,0,0,1-.65.35,4.36,4.36,0,0,1-.73.2c-.26,0-.56.08-.91.11l-5.54.52-.06-.57,5.44-.51a5.66,5.66,0,0,0,1-.16,1.59,1.59,0,0,0,.6-.27.87.87,0,0,0,.29-.4,1,1,0,0,0,0-.43.73.73,0,0,0-.17-.41,1,1,0,0,0-.4-.23,2.24,2.24,0,0,0-.66-.1,8.53,8.53,0,0,0-1,0l-5.37.51Zm2-3.09,6.54.07v.58l-8.66-.09,0-.58,6.35-1.94-6.33-.07v-.59l8.66.09v.56l-6.58,2ZM96,432.91l-.06.6-8.54-.84,0-.59,8.55.83Zm.42-3.07-8.7-.09.12-.63,6.6.11-6.13-2.38.13-.62,8.06,3.19-.08.42Zm-3.48-6.68,1.09.33-.47,1.59,2.71.81.52-1.75,1.09.33-.69,2.31-8.27-2.49.69-2.3,1.07.32-.52,1.74,2.31.7.47-1.59Zm5.54-.4-.22.54-7.93-3.21.55-1.33a1.08,1.08,0,0,1,.86-.65,2.08,2.08,0,0,1,.73,0,5.76,5.76,0,0,1,1.83.76,3.29,3.29,0,0,1,.46.4l.2.21h.28a2.88,2.88,0,0,1,.35,0c.15,0,.39.1.74.21l3,.94-.22.55-2.92-.94a2.25,2.25,0,0,0-.54-.11.69.69,0,0,0-.39.06.63.63,0,0,0-.2.29l-.29.68,3.72,1.51Zm-7-2.82,2.19.89.3-.72a.67.67,0,0,0,0-.37.7.7,0,0,0-.24-.39,2.16,2.16,0,0,0-.64-.36,3.31,3.31,0,0,0-.42-.12,1.09,1.09,0,0,0-.4,0A.66.66,0,0,0,92,419a.63.63,0,0,0-.21.28l-.28.66Zm6-1.28.25-.53.35.13a2.38,2.38,0,0,0,.38.11,1.56,1.56,0,0,0,.36,0,.72.72,0,0,0,.31-.11,1,1,0,0,0,.36-.51.51.51,0,0,0,0-.27,1,1,0,0,0-.07-.28.92.92,0,0,0-.23-.28,2.8,2.8,0,0,0-.44-.29,4.23,4.23,0,0,0-.45-.21,1.56,1.56,0,0,0-.45-.09,1,1,0,0,0-.49.14c-.18.1-.39.22-.62.37a3,3,0,0,1-.59.3,1.71,1.71,0,0,1-.63.07,4,4,0,0,1-.82-.17,4.83,4.83,0,0,1-1-.51,3.18,3.18,0,0,1-.61-.46,2.6,2.6,0,0,1-.33-.43,2,2,0,0,1-.19-.43,1.14,1.14,0,0,1,0-.41,1.06,1.06,0,0,1,.08-.35.86.86,0,0,1,.46-.49,1.91,1.91,0,0,1,.62-.13,2.42,2.42,0,0,1,.65.06,3.62,3.62,0,0,1,.55.14l.31.12-.25.52-.27-.09a1.77,1.77,0,0,0-.33-.08,1.07,1.07,0,0,0-.4,0,.49.49,0,0,0-.29.17,1.32,1.32,0,0,0-.15.24.86.86,0,0,0-.05.44,1.1,1.1,0,0,0,.16.37,1.79,1.79,0,0,0,.3.32,2.55,2.55,0,0,0,.39.24,1.91,1.91,0,0,0,.5.16,1.55,1.55,0,0,0,.42,0,1.24,1.24,0,0,0,.36-.11,3.21,3.21,0,0,0,.47-.25c.2-.12.39-.23.58-.32a1.53,1.53,0,0,1,.56-.18,1.63,1.63,0,0,1,.61,0l.6.18a4.71,4.71,0,0,1,.56.27,4.16,4.16,0,0,1,.85.59,2.48,2.48,0,0,1,.47.59,1.24,1.24,0,0,1,.19.57,1.07,1.07,0,0,1-.1.5,1.18,1.18,0,0,1-.34.46,1.26,1.26,0,0,1-.5.22,2.25,2.25,0,0,1-.59,0q-.3,0-.6-.09a4.1,4.1,0,0,1-.59-.2l-.32-.14Zm4.8-3.49-.32.5-7.28-4.61.32-.5,7.28,4.61Zm-5.13-5.89-.87-.66.93-1.23.93-1.23.87.66-.78,1,2.93,2.23c1,.75,2,1.52,3,2.28l-.35.48c-1-.76-2-1.54-3-2.29l-2.93-2.23-.72.95Zm9.9-.17-.42.44-2.89-2.72-4.45-2.05.46-.49,3.35,1.52-1.8-3.16.48-.5,2.41,4.27,2.86,2.69Zm12.53-18.27,1.25-.43a1.16,1.16,0,0,1,.49-.05.86.86,0,0,1,.51.3,2.73,2.73,0,0,1,.43.58,5.27,5.27,0,0,1,.29.59,4.87,4.87,0,0,1,.21.53,5,5,0,0,1,.24,1,2.37,2.37,0,0,1,0,.8,1.19,1.19,0,0,1-.25.59,1.08,1.08,0,0,1-.46.3l-.58.2,1.18,3.47-.55.19-2.74-8.08Zm1.73,3.32.58-.2a.78.78,0,0,0,.31-.19.68.68,0,0,0,.14-.31,1.17,1.17,0,0,0,0-.42,3.25,3.25,0,0,0-.14-.56,3.88,3.88,0,0,0-.29-.61,1.06,1.06,0,0,0-.32-.34.33.33,0,0,0-.32,0l-.79.27.82,2.4Zm4.32-5.2a1.27,1.27,0,0,1,1,.36,4.1,4.1,0,0,1,1,1.44,9.64,9.64,0,0,1,1,4.26,4.3,4.3,0,0,1-.3,1.67,1,1,0,0,1-.76.7,1.2,1.2,0,0,1-1-.39,4.41,4.41,0,0,1-1-1.42,8.94,8.94,0,0,1-.71-2.06,9.27,9.27,0,0,1-.24-2.18,3.81,3.81,0,0,1,.32-1.69,1.15,1.15,0,0,1,.73-.69Zm.26,1.12c-.19,0-.35.21-.49.5a2.91,2.91,0,0,0-.2,1.23,8.4,8.4,0,0,0,.19,1.62,7,7,0,0,0,.51,1.5,3.35,3.35,0,0,0,.69,1.06.83.83,0,0,0,.69.31c.21,0,.38-.2.51-.52a3.41,3.41,0,0,0,.19-1.21,7.06,7.06,0,0,0-.2-1.59,8.07,8.07,0,0,0-.52-1.55,3,3,0,0,0-.71-1.07.87.87,0,0,0-.66-.28Zm8.21-1.23,0-1.12h3.06l0,1.12h-1.29l.23,7.53h-.59l-.23-7.53Zm16,.65.49.13c-.07,1.46-.13,2.93-.23,4.39s-.24,2.93-.35,4.39l-.61-.17c0-.39,0-.77.07-1.16l.09-1.15-.83-.23-.84-.22c-.34.67-.67,1.34-1,2l-.58-.18c.61-1.27,1.24-2.54,1.87-3.84s1.27-2.63,1.91-4Zm-.43,5.34c0-.59.09-1.19.13-1.79s.07-1.19.11-1.78l-.78,1.61c-.26.54-.53,1.07-.79,1.61l.66.18.67.17Zm4.32-1.91-2.43,6-.53-.21,3.22-7.9.53.23-.53,6.5,2.36-5.77.54.22-3.23,7.9-.5-.21.57-6.72Zm.93,7.38,4-7.53.92.49a1.7,1.7,0,0,1,.46.35,1.9,1.9,0,0,1,.41.58,1.73,1.73,0,0,1,.15.81,4.17,4.17,0,0,1-.13.93,5.48,5.48,0,0,1-.33,1c-.14.34-.32.72-.52,1.12s-.45.81-.7,1.2a7.28,7.28,0,0,1-.85,1.1,3.27,3.27,0,0,1-.74.61,1.46,1.46,0,0,1-.64.19,1.34,1.34,0,0,1-.51-.05,3.32,3.32,0,0,1-.58-.25l-1-.51Zm4-6.34-3,5.69.36.19a1.93,1.93,0,0,0,.69.23,1.29,1.29,0,0,0,.65-.13,2,2,0,0,0,.6-.44,3.53,3.53,0,0,0,.55-.72q.28-.45.63-1.08a10.32,10.32,0,0,0,.5-1.07,4.36,4.36,0,0,0,.2-.79,1.7,1.7,0,0,0,0-.68,1.79,1.79,0,0,0-.19-.49,1.81,1.81,0,0,0-.55-.52L159,394Zm7.73,4.8.71-.88c.39.32.79.64,1.17,1l1.15,1-.72.88-1-.81c-.8,1-1.57,2-2.36,3s-1.6,1.92-2.39,2.84l-.44-.39c.79-.92,1.6-1.86,2.38-2.83s1.57-2,2.37-3l-.9-.75Zm3.61,6.49-.8.81-1.19-1.19-2,2,1.31,1.33-.8.81-1.73-1.75,6.07-6.15,1.73,1.74-.78.79-1.31-1.31-1.7,1.72,1.19,1.19Zm-2.6,4.61,6.55-5.5.39.45L169,409.59l1.29,1.51-.87.74-1.68-2Zm7.86,1.86-.94.65-1-1.37-2.33,1.64,1.1,1.52-.93.66-1.45-2,7.09-5,1.44,2-.91.64-1.09-1.5-2,1.4,1,1.37Zm3.67,3.74L179,415l.28-.2a1.55,1.55,0,0,0,.28-.29.88.88,0,0,0,.17-.41.75.75,0,0,0-.07-.44.76.76,0,0,0-.53-.39,2.17,2.17,0,0,0-.84,0,5.2,5.2,0,0,0-1,.31,10.74,10.74,0,0,0-1.1.57c-.43.24-.78.45-1.07.65a4.18,4.18,0,0,0-.73.64,1.57,1.57,0,0,0-.41.71.8.8,0,0,0,.08.66.7.7,0,0,0,.44.34.78.78,0,0,0,.5,0l.74-.29.31.51-.39.2c-.15.07-.35.16-.62.26a2,2,0,0,1-.85.12,1.6,1.6,0,0,1-.73-.18,1.08,1.08,0,0,1-.46-.46,1.35,1.35,0,0,1-.13-.74,2,2,0,0,1,.4-.91,4.57,4.57,0,0,1,.9-.92c.37-.28.69-.51,1-.68s.58-.35.91-.53.84-.44,1.23-.61a5.51,5.51,0,0,1,1.16-.35,3.7,3.7,0,0,1,1-.07,1.47,1.47,0,0,1,.73.24,1.32,1.32,0,0,1,.46.48,1,1,0,0,1,.06.83,2.51,2.51,0,0,1-.47.71,3.11,3.11,0,0,1-.66.55l-.28.18Zm3.65,2.24a1.24,1.24,0,0,0-.86-.57,4.06,4.06,0,0,0-1.77,0,9.7,9.7,0,0,0-4,1.73,4.2,4.2,0,0,0-1.18,1.23,1.11,1.11,0,0,0-.16,1,1.16,1.16,0,0,0,.89.6,4.61,4.61,0,0,0,1.73,0,10.35,10.35,0,0,0,2.11-.64,9.23,9.23,0,0,0,1.94-1.11,4,4,0,0,0,1.19-1.26,1.15,1.15,0,0,0,.13-1Zm-1.06.46a.88.88,0,0,0-.61-.37,3,3,0,0,0-1.28.05,8,8,0,0,0-1.58.49,7.64,7.64,0,0,0-1.39.78,3.21,3.21,0,0,0-.89.87.76.76,0,0,0-.14.72.75.75,0,0,0,.63.39,3.67,3.67,0,0,0,1.26-.05,7.88,7.88,0,0,0,1.55-.49,8.67,8.67,0,0,0,1.43-.81,2.91,2.91,0,0,0,.9-.89.77.77,0,0,0,.12-.69Zm2.45,3.22.21.7-6.22,3.3,7-.57.21.69-8.33,2.41-.15-.54,6.29-1.82-6.66.57-.15-.51,5.89-3.1-6.28,1.82-.17-.54,8.33-2.41Zm1.72,6.29L177.45,429l.1.55,6.46-.95-6.25,2.27.08.52,6.68.32-6.48,1,.08.56,8.57-1.27-.11-.72-7.05-.36,6.61-2.43-.12-.72Zm.91,8.81,0,.58-5.66.22c-.2,0-.44,0-.72,0s-.56-.06-.85-.11a2.77,2.77,0,0,1-.75-.27,1.59,1.59,0,0,1-.54-.49,1.09,1.09,0,0,1-.22-.62,1,1,0,0,1,.18-.62,1.92,1.92,0,0,1,.53-.49,2.73,2.73,0,0,1,.67-.32,4.29,4.29,0,0,1,.73-.15,7.68,7.68,0,0,1,.91-.07l5.54-.21,0,.58-5.44.21a5.61,5.61,0,0,0-1,.1,1.47,1.47,0,0,0-.61.24.85.85,0,0,0-.31.38.88.88,0,0,0-.05.43.69.69,0,0,0,.15.42,1,1,0,0,0,.38.25,2,2,0,0,0,.65.14,7.54,7.54,0,0,0,1,0l5.36-.2Zm-2.19,3-6.51-.4,0-.58,8.63.54,0,.58-6.38,1.58,6.3.39,0,.58-8.62-.54,0-.55,6.61-1.6Zm-7,4.47.09-.59,8.53,1.31-.09.59-8.53-1.31Zm5.1,6.29.14-.58.35.05a1.46,1.46,0,0,0,.41,0,.9.9,0,0,0,.4-.18.75.75,0,0,0,.27-.36.77.77,0,0,0-.1-.64,2.15,2.15,0,0,0-.62-.56,4.52,4.52,0,0,0-.91-.44,10.79,10.79,0,0,0-1.2-.34,12.46,12.46,0,0,0-1.22-.26,4.8,4.8,0,0,0-1-.05,1.92,1.92,0,0,0-.79.23.84.84,0,0,0-.42.53.68.68,0,0,0,.08.55.7.7,0,0,0,.35.34l.74.3-.14.58-.43-.13-.63-.24a2,2,0,0,1-.69-.48,1.7,1.7,0,0,1-.4-.63,1,1,0,0,1,0-.64,1.19,1.19,0,0,1,.43-.62,2,2,0,0,1,.93-.38,5,5,0,0,1,1.3,0c.47.05.86.1,1.18.16l1,.24c.48.12.92.26,1.31.4a6.51,6.51,0,0,1,1.09.54,4.13,4.13,0,0,1,.77.63,1.43,1.43,0,0,1,.36.67,1.33,1.33,0,0,1,0,.66,1,1,0,0,1-.54.63,2.58,2.58,0,0,1-.84.2,4.15,4.15,0,0,1-.87-.06l-.33-.06Zm1.06,4-7.47-4.47-.22.56,2,1.19-.63,1.62-2.3-.34-.23.61,8.7,1.3.18-.47Zm-5.28-.92.5-1.27,3,1.84-3.54-.57Zm2.78,4.33,1,.51L181,460.94l-1-.5.6-1.16-6.74-3.42.28-.53,6.73,3.41.55-1.06ZM172.08,459l7.34,4.49.31-.51-7.35-4.49-.3.51Zm5,8a1.26,1.26,0,0,0,.09-1,4,4,0,0,0-.87-1.52,9.54,9.54,0,0,0-3.46-2.59,4.37,4.37,0,0,0-1.67-.4,1.17,1.17,0,0,0-1,.39,1.11,1.11,0,0,0-.1,1.06,4.49,4.49,0,0,0,.86,1.49,9.41,9.41,0,0,0,1.58,1.49,9.76,9.76,0,0,0,1.92,1.11,4,4,0,0,0,1.69.4,1.2,1.2,0,0,0,1-.39Zm-.92-.69a.84.84,0,0,0,0-.71,2.91,2.91,0,0,0-.65-1.08,7.6,7.6,0,0,0-1.21-1.11,6.9,6.9,0,0,0-1.35-.81,3.2,3.2,0,0,0-1.2-.33.81.81,0,0,0-.71.24.74.74,0,0,0,0,.74,3.37,3.37,0,0,0,.65,1.06,7.81,7.81,0,0,0,1.18,1.09,7.64,7.64,0,0,0,1.4.82,2.83,2.83,0,0,0,1.23.33.79.79,0,0,0,.67-.24Zm-3.39,2.59L166.63,466l-.38.41,6.3,5.84.4-.43-4.61-4.27,6,2.78.4-.42-6.3-5.85-.39.43,4.76,4.42Zm-5.63.08-.23-.23a3.39,3.39,0,0,0-.45-.4A3.72,3.72,0,0,0,166,468a2,2,0,0,0-.55-.21,1.23,1.23,0,0,0-.54,0,1.18,1.18,0,0,0-.52.27,1.14,1.14,0,0,0-.33.4,1.2,1.2,0,0,0-.11.55,2.21,2.21,0,0,0,.15.67,3.72,3.72,0,0,0,.52.82,4,4,0,0,0,.41.48,5.9,5.9,0,0,0,.5.47,2.13,2.13,0,0,0,.58.35,1.33,1.33,0,0,0,.61.1,6,6,0,0,0,.68-.11c.23,0,.41-.07.55-.08a1.29,1.29,0,0,1,.39,0,2,2,0,0,1,.4.15,2.06,2.06,0,0,1,.43.34,1.7,1.7,0,0,1,.29.36,1.33,1.33,0,0,1,.19.4,1,1,0,0,1,0,.41.82.82,0,0,1-.19.4,1,1,0,0,1-.23.16.47.47,0,0,1-.34.06.89.89,0,0,1-.39-.12l-.29-.19-.24-.18-.42.41.26.21a3.68,3.68,0,0,0,.47.33,3.23,3.23,0,0,0,.6.28,1.77,1.77,0,0,0,.65.09,1,1,0,0,0,.63-.31,1.43,1.43,0,0,0,.33-.7,2,2,0,0,0,0-.47,2.25,2.25,0,0,0-.17-.52,4.13,4.13,0,0,0-.44-.64,4.92,4.92,0,0,0-.8-.83,4.1,4.1,0,0,0-.72-.44,1.74,1.74,0,0,0-.62-.15,3.26,3.26,0,0,0-.69.09,4.57,4.57,0,0,1-.75.1,1,1,0,0,1-.52-.12,1.47,1.47,0,0,1-.38-.3,3.91,3.91,0,0,1-.33-.4,2.7,2.7,0,0,1-.27-.43.79.79,0,0,1-.08-.34.77.77,0,0,1,.07-.26.83.83,0,0,1,.17-.21,1.12,1.12,0,0,1,.22-.17.85.85,0,0,1,.34-.11.88.88,0,0,1,.33,0,1.5,1.5,0,0,1,.32.18c.11.08.21.17.3.25l.27.26.46-.41Zm-30.26-72.09a40.47,40.47,0,1,1-40.47,40.47,40.55,40.55,0,0,1,40.47-40.47Zm0-.4A40.87,40.87,0,1,1,96,437.38a40.95,40.95,0,0,1,40.86-40.87Zm0-10.84a51.72,51.72,0,1,1-51.71,51.71,51.81,51.81,0,0,1,51.71-51.71Zm0,.66a51.05,51.05,0,1,1-51,51.05,51.15,51.15,0,0,1,51.05-51.05ZM113.43,476c-.1.22-.19.43-.28.65l.79.33.93.45c-.18.4-.37.79-.56,1.18s-.42.79-.62,1.18a9.31,9.31,0,0,1-1.13-.18,7.93,7.93,0,0,1-1.07-.29c0,.34-.06.66-.09,1a3.14,3.14,0,0,1,.84,0c.36,0,.75.07,1.16.14-.17.39-.33.75-.49,1.09l.59.28c.12-.36.23-.66.33-.89.4-.89.87-1.78,1.3-2.67s.82-1.79,1.23-2.68a5.88,5.88,0,0,1,.39-.68l-.61-.29c-.11.29-.22.53-.3.72l-.71,1.56-.94-.45c-.22-.1-.47-.24-.76-.4Zm4.27-.67c-.12.28-.21.5-.28.65-.43.88-.84,1.78-1.28,2.68s-.88,1.81-1.27,2.72c-.23.53-.11.91.34,1.12s.85.39,1.27.57a.59.59,0,0,0,.59,0,4.63,4.63,0,0,0,.78-.74,1.08,1.08,0,0,1-.47-.67,3.51,3.51,0,0,1-.5.71c-.1.09-.26.08-.48,0l-.67-.29c-.28-.12-.35-.35-.21-.68s.35-.82.54-1.22.38-.82.58-1.22c.38,0,.85-.05,1.39-.09a3.46,3.46,0,0,1,1.18.08,4.78,4.78,0,0,1-.16-.93c-.41.11-.79.19-1.15.25a5,5,0,0,1-1,.1l1-2.09a6.64,6.64,0,0,1,.34-.6l-.58-.31Zm6.55,8.26a16.8,16.8,0,0,1,1.21,1.92,7.76,7.76,0,0,1,.64-.52l-.66-.95c-.24-.35-.38-.48-.55-.76-.18.16-.44.15-.64.31Zm-2.51-1.31a8.42,8.42,0,0,1-2.12,1.26,2.72,2.72,0,0,1,.4.6c1.07-.63,1.78-1,2.13-1.18-.15-.23-.29-.46-.41-.68Zm.09-3c0,.31-.19.85-.29,1.29s-.2.84-.31,1.2l2,.48-.4,1.76c-.07.3-.17.45-.31.44a1.66,1.66,0,0,1-.75-.18,2.38,2.38,0,0,1,.12.9,4.77,4.77,0,0,0,1,0c.19,0,.33-.28.42-.67l.47-2.06,2,.54a10.19,10.19,0,0,1,.71-2.42l-4.64-1.24Zm.42.88-.28,1.21,3.38.86.32-1.27-3.42-.8Zm1.93-2.7c0,.24,0,.45,0,.62s0,.32,0,.43l-.85-.22c-.32-.08-.64-.18-1-.28l-1.3-.41-.1.72c2.17.47,4.42,1,6.55,1.7,0-.21.11-.45.17-.66-.36-.06-.76-.15-1.21-.27l-1.61-.41c0-.31,0-.57,0-.77a3.59,3.59,0,0,1,0-.42l-.73,0Zm8.35,9.56a3.9,3.9,0,0,1,.74,0l0-.83c0-.43,0-.74,0-.94l.37-5,.94.06-.35,1.21-.36,1q.28.47.36.63a3.89,3.89,0,0,1,.16.39,3.26,3.26,0,0,1,.12.39,1.88,1.88,0,0,1,0,.34,1,1,0,0,0,0,.22c0,.44-.23.64-.63.62a2.52,2.52,0,0,1-.48-.09,3.58,3.58,0,0,1,.22.52,1.38,1.38,0,0,1,.05.25v.27a3.69,3.69,0,0,0,.91-.24,1.09,1.09,0,0,0,.44-.48,1.92,1.92,0,0,0,.19-.71,3.58,3.58,0,0,0,0-.68,4.23,4.23,0,0,0-.17-.58,4.41,4.41,0,0,0-.53-.9l.67-1.78c0-.07.07-.2.13-.38s.13-.39.21-.6l-.81,0-.91-.06a6.17,6.17,0,0,1-.79-.09l0,.82c0,.25,0,.56-.06.94l-.28,3.93c0,.27-.05.55-.08.81s-.06.58-.1.94Zm-1.75-4.59.86.07.14-1.61-.85-.07-.15,1.61Zm-.2,2.29.85.07.15-1.68-.85-.07-.15,1.68Zm-1.27-2.4.88.07.14-1.61-.87-.07-.15,1.61Zm-.2,2.28.87.07.15-1.67-.87-.07-.15,1.67Zm-.23-4.59,0,.73c0,.34,0,.56-.05.67l-.29,3.26c0,.29-.06.53-.08.71s0,.44-.08.76a2,2,0,0,1,.64.06v-.23c0-.16,0-.26,0-.3l0-.45,2.33.18,0,.28c0,.11,0,.28-.06.5h.31l.34.05,0-.67c0-.09,0-.31.06-.67l.28-3.17q0-.36.06-.63c0-.19,0-.45.1-.8a6.88,6.88,0,0,1-.8,0l-.69-.05.05-.55c0-.1,0-.25.05-.44s.06-.43.09-.7a1.72,1.72,0,0,1-.67-.05l0,.58c0,.08,0,.27,0,.56l-.05.55-.71-.06c-.25,0-.52-.05-.8-.1Zm8.43.32.05.43c0,.09,0,.22,0,.4l.18,2.56c0,.22,0,.4,0,.56s0,.37,0,.62l.26,0H138a2.47,2.47,0,0,1,.36,0l0-.16,0-.16,0-.27,1.62-.1.11,1.45c0,.22,0,.41.07.57a.54.54,0,0,0,.37.35,5.4,5.4,0,0,0,1.54,0c.45,0,.78-.05,1-.08a1.18,1.18,0,0,0,.54-.18.94.94,0,0,0,.29-.36c.08-.16.14-.3.19-.42s.11-.25.18-.39a1.77,1.77,0,0,1-.59-.25c-.1-.09-.22-.21-.35-.35,0,.3,0,.52,0,.65a.85.85,0,0,1-.11.34.44.44,0,0,1-.27.2,2.38,2.38,0,0,1-.61.1,4.46,4.46,0,0,1-1.31,0,.48.48,0,0,1-.16-.16,1.82,1.82,0,0,1-.05-.42l-.09-1.18,1.65-.1v.28a.38.38,0,0,0,0,.15,4.36,4.36,0,0,1,.75-.05l-.06-.49c0-.07,0-.23,0-.49l-.18-2.61a3.58,3.58,0,0,1,0-.4V480c-.31,0-.57.07-.77.08l-1.6.1,0-.29c0-.21,0-.37,0-.5s0-.32,0-.55l-.35.06h-.45l.07.6c0,.21,0,.36,0,.46l0,.27-1.59.1c-.22,0-.47,0-.76,0Zm1,3.31,1.63-.1-.08-1.06-1.62.1.07,1.06Zm-.12-1.7,1.63-.1-.07-1-1.63.11.07,1Zm2.46,1.55,1.65-.1-.07-1.06-1.65.11.07,1.05Zm-.12-1.69,1.65-.11-.07-1-1.65.1.07,1Zm5.23,3.77a1.4,1.4,0,0,1,.64.31l.26.27.11-.1c.42-.4.7-.66.82-.79a6.81,6.81,0,0,0,.48-.59,2.93,2.93,0,0,0,.42-.77,5.13,5.13,0,0,0,.2-.7,2.31,2.31,0,0,0,.08-.46c0-.09,0-.21,0-.36v-.5a6.06,6.06,0,0,0,1.14,1.62,4.76,4.76,0,0,0,1.35.92l.74.34.23.11.09-.36a1.46,1.46,0,0,1,.53-.72l-.23,0a3.84,3.84,0,0,1-.87-.16,5.5,5.5,0,0,1-.95-.4,3.48,3.48,0,0,1-1-1,6,6,0,0,1-.65-1,3.54,3.54,0,0,1-.17-.47l1.7-.38c.17,0,.5-.09,1-.16-.07-.2-.11-.32-.12-.37a.7.7,0,0,1,0-.16,2.49,2.49,0,0,1,0-.31l-1,.29-1.82.4-.09-.4c0-.1,0-.27-.09-.5a4.06,4.06,0,0,1-.09-.57l-.13-.84a2.42,2.42,0,0,1-.39.14l-.44.05.19.77s0,.11,0,.21l.08.36c.06.27.1.46.12.58s0,.23.06.36l-1.75.39-1.06.17.09.31s0,.06,0,.12l0,.18c0,.06,0,.13,0,.23l1-.3,1.68-.37c0,.37,0,.7,0,1a8.49,8.49,0,0,1-.12,1.07,3,3,0,0,1-.67,1.32,5.2,5.2,0,0,1-1.32,1.16l-.21.12Zm8.29-3.17.94-.4,2.08-.75.22.6a3.55,3.55,0,0,1,.14.45.3.3,0,0,1,0,.19.71.71,0,0,1-.32.18,1,1,0,0,1-.33.08l-.14,0a2.28,2.28,0,0,1,.4.35,1.27,1.27,0,0,1,.14.22l.09.19c.66-.35,1-.59,1-.73a1.09,1.09,0,0,0-.06-.43l-.51-1.36,1.71-.62c.06,0,.42-.14,1.1-.34l-.17-.34c0-.06,0-.12,0-.17s0-.15-.07-.28l-1.06.45-1.71.62-.1-.28.17-.18a5.64,5.64,0,0,1,.95-.91l.24-.15-.11-.23s0,0-.05-.13l-.06-.16c0-.06,0-.15-.07-.27-.32.15-.61.28-.87.38l-2.18.79c-.14,0-.49.16-1,.31l.1.23.05.12.06.17s0,.1,0,.2l1-.43,1.79-.65a6.12,6.12,0,0,1-.7.72l-.12.1.13.27.07.14v0l.07.16-2.09.76c-.23.09-.56.18-1,.29l.12.27,0,.12.12.4Zm-.73-2.23.44-.17.24-.07-.14-.29-.1-.23-.17-.48,5-1.8.17.47.06.19.07.27a2.47,2.47,0,0,1,.7-.25l-.12-.25-.08-.19-.22-.6s0-.12-.07-.21-.06-.22-.1-.37l-.73.32-.91.33.1-.57.09-.6.07-.36,0-.26a2.73,2.73,0,0,1-.76-.19v.33a9,9,0,0,1-.18,1.88l-3.22,1.17c-.13,0-.39.13-.79.24.12.26.19.43.23.53l.23.62c0,.12.1.3.17.54ZM153,477l.25.13a3.48,3.48,0,0,1,.39.27,2,2,0,0,1,.29.23l.17.21.24-.32a2.67,2.67,0,0,1,.29-.23l-1.17-.83a2.63,2.63,0,0,1-.46.54Zm2.22-1.52a2.34,2.34,0,0,1-.58.36l.1.13.36.44.28.38.14.21a2.33,2.33,0,0,1,.59-.39l-.89-1.13Zm-24.48-81.17h-.57c.14,1,.67,2.41,1.72,2.37a1.13,1.13,0,0,0,.51-.12,1.23,1.23,0,0,0,.41-.41,2.16,2.16,0,0,0,.27-.69,4,4,0,0,0,.05-1c0-.22-.1-.65-.14-.83-.23-1-.62-1.27-1.54-1.8a4.72,4.72,0,0,1-.5-.31,1.35,1.35,0,0,1-.3-.28,1.82,1.82,0,0,1-.23-.39,1.51,1.51,0,0,1,.22-1.69c.7-.54,1.25.3,1.41.92h.54c-.18-.83-.57-2.11-1.62-2.08-1.63.29-1.41,2.75-.83,3.82a2.2,2.2,0,0,0,.42.54,4.2,4.2,0,0,0,.62.4c1,.53,1.47.4,1.32,2.25a.63.63,0,0,1-.12.33.6.6,0,0,1-.21.18c-1,.55-1.37-.51-1.43-1.19Zm8.52-.38-.56-.1c-.05,1,.2,2.49,1.23,2.64a1.05,1.05,0,0,0,.53,0,1.22,1.22,0,0,0,.48-.33,1.83,1.83,0,0,0,.39-.62,4.15,4.15,0,0,0,.25-1c0-.22,0-.65,0-.84,0-1.06-.37-1.36-1.17-2.05a4.66,4.66,0,0,1-.43-.4,1.51,1.51,0,0,1-.24-.34,1.22,1.22,0,0,1-.15-.42,1.51,1.51,0,0,1,.53-1.62c.79-.4,1.17.53,1.21,1.17l.53.1c0-.85-.16-2.18-1.19-2.35-1.66,0-1.91,2.45-1.54,3.6a1.84,1.84,0,0,0,.31.61,3.76,3.76,0,0,0,.53.51c.83.7,1.36.67.87,2.46a.7.7,0,0,1-.18.3,1,1,0,0,1-.24.14c-1,.36-1.25-.76-1.18-1.44Zm-30.94,2.83a1.14,1.14,0,0,1,1,0,2.8,2.8,0,0,1,.7.34,5.57,5.57,0,0,1,.78.61,7.18,7.18,0,0,1,.78.78,11.66,11.66,0,0,1,1.31,1.82,6.8,6.8,0,0,1,.45.95,4.2,4.2,0,0,1,.32,1.65,1.1,1.1,0,0,1-.43.94,1.2,1.2,0,0,1-1.06,0,4.32,4.32,0,0,1-1.43-.92,9.2,9.2,0,0,1-1.43-1.64,9,9,0,0,1-.61-.95,8.61,8.61,0,0,1-.47-1,4,4,0,0,1-.33-1.69,1.19,1.19,0,0,1,.4-.92Zm.66.94a.83.83,0,0,1,.71,0,3.36,3.36,0,0,1,1.06.73,9.14,9.14,0,0,1,1.08,1.23,6.37,6.37,0,0,1,.79,1.39,3.08,3.08,0,0,1,.28,1.18.76.76,0,0,1-.28.67.83.83,0,0,1-.74,0,3.45,3.45,0,0,1-1-.7,7.74,7.74,0,0,1-1-1.2,7.41,7.41,0,0,1-.81-1.44,2.94,2.94,0,0,1-.29-1.21.81.81,0,0,1,.26-.65Zm5.32.84,1.94,3.41-.5.27-4.3-7.53,2.09-1.14.58,1-1.58.86,1.2,2.12,1.46-.8.57,1Z" transform="translate(-85.17 -385.67)"/></svg>